<svg xmlns="http://www.w3.org/2000/svg" viewBox="0 0 400 400" width="400" height="400">
  <rect width="400" height="400" fill="#f7fee7"/>
  <!-- Stem -->
  <path d="M 200 320 Q 195 260 200 200 Q 205 140 195 80" fill="none" stroke="#4d7c0f" stroke-width="2.5" stroke-linecap="round"/>
  <!-- Leaves left -->
  <path d="M 200 240 Q 150 210 130 170 Q 160 175 200 200" fill="#84cc16" opacity="0.85"/>
  <path d="M 200 180 Q 145 155 125 120 Q 158 128 200 155" fill="#65a30d" opacity="0.75"/>
  <path d="M 198 130 Q 150 105 138 75 Q 168 85 198 110" fill="#84cc16" opacity="0.65"/>
  <!-- Leaves right -->
  <path d="M 200 260 Q 250 230 268 190 Q 238 196 200 220" fill="#a3e635" opacity="0.8"/>
  <path d="M 200 200 Q 252 172 270 138 Q 242 146 200 170" fill="#84cc16" opacity="0.7"/>
  <path d="M 199 148 Q 248 120 260 88 Q 232 98 199 122" fill="#65a30d" opacity="0.6"/>
  <!-- Small top bud -->
  <ellipse cx="196" cy="72" rx="8" ry="14" fill="#4d7c0f" opacity="0.9" transform="rotate(-10 196 72)"/>
  <!-- Label -->
  <text x="200" y="358" text-anchor="middle" font-family="Arial, sans-serif" font-size="11" font-weight="600" fill="#6b7280" letter-spacing="3">BOTANICAL</text>
</svg>
