<svg xmlns="http://www.w3.org/2000/svg" viewBox="0 0 400 400" width="400" height="400">
  <rect width="400" height="400" fill="#f8fafc"/>
  <!-- Circuit traces -->
  <path d="M 80 200 L 130 200 L 130 150 L 200 150 L 200 100 L 270 100 L 270 150 L 320 150" fill="none" stroke="#334155" stroke-width="2" stroke-linecap="square"/>
  <path d="M 80 240 L 160 240 L 160 280 L 240 280 L 240 240 L 320 240" fill="none" stroke="#334155" stroke-width="2" stroke-linecap="square"/>
  <path d="M 200 150 L 200 200 L 270 200 L 270 240" fill="none" stroke="#334155" stroke-width="2" stroke-linecap="square"/>
  <path d="M 130 200 L 130 240" fill="none" stroke="#334155" stroke-width="2" stroke-linecap="square"/>
  <!-- Nodes / pads -->
  <circle cx="130" cy="150" r="5" fill="#10b981"/>
  <circle cx="200" cy="100" r="5" fill="#10b981"/>
  <circle cx="270" cy="150" r="5" fill="#10b981"/>
  <circle cx="200" cy="200" r="5" fill="#10b981"/>
  <circle cx="270" cy="240" r="5" fill="#10b981"/>
  <circle cx="160" cy="240" r="5" fill="#10b981"/>
  <circle cx="240" cy="280" r="5" fill="#10b981"/>
  <!-- ICs -->
  <rect x="158" y="118" width="44" height="26" rx="3" fill="#1e293b"/>
  <rect x="228" y="158" width="44" height="26" rx="3" fill="#1e293b"/>
  <!-- IC pins -->
  <line x1="168" y1="118" x2="168" y2="112" stroke="#94a3b8" stroke-width="1.5"/>
  <line x1="180" y1="118" x2="180" y2="112" stroke="#94a3b8" stroke-width="1.5"/>
  <line x1="192" y1="118" x2="192" y2="112" stroke="#94a3b8" stroke-width="1.5"/>
  <line x1="238" y1="158" x2="238" y2="152" stroke="#94a3b8" stroke-width="1.5"/>
  <line x1="250" y1="158" x2="250" y2="152" stroke="#94a3b8" stroke-width="1.5"/>
  <line x1="262" y1="158" x2="262" y2="152" stroke="#94a3b8" stroke-width="1.5"/>
  <!-- Label -->
  <text x="200" y="358" text-anchor="middle" font-family="Arial, sans-serif" font-size="11" font-weight="600" fill="#6b7280" letter-spacing="3">CIRCUIT</text>
</svg>
