<svg xmlns="http://www.w3.org/2000/svg" viewBox="0 0 400 400" width="400" height="400">
  <rect width="400" height="400" fill="#f0fdf4"/>
  <!-- Wave lines -->
  <path d="M 20 160 Q 80 120 140 160 Q 200 200 260 160 Q 320 120 380 160" fill="none" stroke="#10b981" stroke-width="3" stroke-linecap="round"/>
  <path d="M 20 190 Q 80 150 140 190 Q 200 230 260 190 Q 320 150 380 190" fill="none" stroke="#10b981" stroke-width="2.5" stroke-linecap="round" opacity="0.7"/>
  <path d="M 20 220 Q 80 180 140 220 Q 200 260 260 220 Q 320 180 380 220" fill="none" stroke="#10b981" stroke-width="2" stroke-linecap="round" opacity="0.4"/>
  <path d="M 20 250 Q 80 210 140 250 Q 200 290 260 250 Q 320 210 380 250" fill="none" stroke="#10b981" stroke-width="1.5" stroke-linecap="round" opacity="0.2"/>
  <!-- Label -->
  <text x="200" y="340" text-anchor="middle" font-family="Arial, sans-serif" font-size="11" font-weight="600" fill="#6b7280" letter-spacing="3">MINIMAL WAVE</text>
</svg>
